<?xml version="1.0" encoding="iso-8859-1"?>
<!-- Generator: Adobe Illustrator 19.0.0, SVG Export Plug-In . SVG Version: 6.00 Build 0)  -->
<svg version="1.1" id="Layer_1" xmlns="http://www.w3.org/2000/svg" xmlns:xlink="http://www.w3.org/1999/xlink" x="0px" y="0px"
	 viewBox="0 0 512.001 512.001" style="enable-background:new 0 0 512.001 512.001;" xml:space="preserve">
<g>
	<path style="fill:#9BAAAB;" d="M123.044,88.47H62.999c-4.441,0-8.042,3.601-8.042,8.042v42.889c0,4.441,3.601,8.042,8.042,8.042
		h60.045c4.441,0,8.042-3.601,8.042-8.042V96.512C131.086,92.07,127.485,88.47,123.044,88.47z"/>
	<path style="fill:#9BAAAB;" d="M341.144,138.147l-12.867-81.489c-0.618-3.908-3.987-6.787-7.943-6.787H191.667
		c-3.957,0-7.327,2.879-7.943,6.787l-12.867,81.489c-0.367,2.324,0.301,4.69,1.829,6.478c1.528,1.787,3.761,2.818,6.114,2.818
		h154.401c2.351,0,4.586-1.029,6.114-2.818C340.843,142.837,341.511,140.47,341.144,138.147z"/>
</g>
<path style="fill:#687F82;" d="M191.667,49.87c-3.957,0-7.327,2.879-7.943,6.787l-12.867,81.489
	c-0.367,2.324,0.301,4.69,1.829,6.478c1.528,1.787,3.761,2.818,6.114,2.818H256V49.87C256,49.87,191.667,49.87,191.667,49.87z"/>
<path style="fill:#FD6A33;" d="M500.469,131.36H11.532c-4.441,0-8.042,3.601-8.042,8.042v364.558c0,4.441,3.601,8.042,8.042,8.042
	h488.936c4.441,0,8.042-3.601,8.042-8.042V139.401C508.51,134.959,504.91,131.36,500.469,131.36z"/>
<path style="fill:#F0353D;" d="M11.532,131.36c-4.441,0-8.042,3.601-8.042,8.042v364.558c0,4.441,3.601,8.042,8.042,8.042H256
	V131.36C256,131.36,11.532,131.36,11.532,131.36z"/>
<path style="fill:#FFBA7E;" d="M500.469,131.36H11.532c-4.441,0-8.042,3.601-8.042,8.042v98.109h505.02v-98.109
	C508.51,134.959,504.91,131.36,500.469,131.36z"/>
<path style="fill:#FF8C29;" d="M11.532,131.36c-4.441,0-8.042,3.601-8.042,8.042v98.109H256V131.36
	C256,131.36,11.532,131.36,11.532,131.36z"/>
<path style="fill:#CDD4D5;" d="M157.355,380.117c-20.989,0-38.064,17.075-38.064,38.064s17.075,38.064,38.064,38.064
	s38.064-17.075,38.064-38.064S178.343,380.117,157.355,380.117z"/>
<path style="fill:#4ACFD9;" d="M256,191.404c-73.017,0-132.42,59.404-132.42,132.42s59.404,132.42,132.42,132.42
	s132.42-59.404,132.42-132.42S329.017,191.404,256,191.404z"/>
<path style="fill:#0295AA;" d="M123.58,323.825c0,73.017,59.404,132.42,132.42,132.42V191.404
	C182.984,191.404,123.58,250.807,123.58,323.825z"/>
<path style="fill:#9BAAAB;" d="M256,234.294c-49.368,0-89.531,40.164-89.531,89.531s40.164,89.531,89.531,89.531
	s89.531-40.164,89.531-89.531S305.368,234.294,256,234.294z"/>
<path style="fill:#365558;" d="M166.469,323.825c0,49.368,40.164,89.531,89.531,89.531V234.294
	C206.633,234.294,166.469,274.457,166.469,323.825z"/>
<g>
	<path style="fill:#FFFFFF;" d="M256,381.189c-4.441,0-8.042-3.601-8.042-8.042s3.601-8.042,8.042-8.042
		c11.248,0,21.769-4.464,29.626-12.568c3.091-3.189,8.182-3.267,11.371-0.176c3.189,3.091,3.267,8.182,0.176,11.371
		C286.261,374.989,271.639,381.189,256,381.189z"/>
	<path style="fill:#FFFFFF;" d="M303.626,344.735c-0.695,0-1.401-0.091-2.104-0.281c-4.288-1.16-6.823-5.576-5.664-9.862
		c0.944-3.491,1.423-7.114,1.423-10.768c0-22.762-18.518-41.281-41.281-41.281c-4.441,0-8.042-3.601-8.042-8.042
		c0-4.441,3.601-8.042,8.042-8.042c31.631,0,57.364,25.733,57.364,57.364c0,5.072-0.667,10.107-1.981,14.967
		C310.414,342.375,307.168,344.735,303.626,344.735z"/>
	<polygon style="fill:#FFFFFF;" points="203.896,117.957 209.991,79.356 302.01,79.356 308.104,117.957 	"/>
	<path style="fill:#FFFFFF;" d="M453.29,469.112c-4.441,0-8.042-3.601-8.042-8.042V268.069c0-4.441,3.601-8.042,8.042-8.042
		s8.042,3.601,8.042,8.042V461.07C461.332,465.511,457.732,469.112,453.29,469.112z"/>
	<path style="fill:#FFFFFF;" d="M453.29,207.488c-4.441,0-8.042-3.601-8.042-8.042v-34.311c0-4.441,3.601-8.042,8.042-8.042
		s8.042,3.601,8.042,8.042v34.311C461.332,203.887,457.732,207.488,453.29,207.488z"/>
</g>
<g>
	<path style="fill:#F0353D;" d="M397.319,64.608H363.96c-4.441,0-8.042-3.601-8.042-8.042s3.601-8.042,8.042-8.042h33.359
		c4.441,0,8.042,3.601,8.042,8.042S401.76,64.608,397.319,64.608z"/>
	<path style="fill:#F0353D;" d="M375.874,113.132c-2.058,0-4.116-0.785-5.686-2.356l-21.229-21.229
		c-3.141-3.141-3.141-8.233,0-11.372c3.141-3.141,8.233-3.141,11.372,0l21.229,21.229c3.141,3.141,3.141,8.233,0,11.372
		C379.99,112.346,377.932,113.132,375.874,113.132z"/>
	<path style="fill:#F0353D;" d="M354.861,37.313c-2.059,0-4.116-0.785-5.686-2.356c-3.141-3.141-3.141-8.233,0-11.373l21.229-21.229
		c3.141-3.141,8.233-3.141,11.372,0c3.141,3.141,3.141,8.233,0,11.373l-21.229,21.229C358.977,36.527,356.919,37.313,354.861,37.313
		z"/>
</g>
<g>
</g>
<g>
</g>
<g>
</g>
<g>
</g>
<g>
</g>
<g>
</g>
<g>
</g>
<g>
</g>
<g>
</g>
<g>
</g>
<g>
</g>
<g>
</g>
<g>
</g>
<g>
</g>
<g>
</g>
</svg>
